<mxfile host="Electron" modified="2023-10-11T06:53:01.609Z" agent="Mozilla/5.0 (Windows NT 10.0; Win64; x64) AppleWebKit/537.36 (KHTML, like Gecko) draw.io/22.0.2 Chrome/114.0.5735.289 Electron/25.8.4 Safari/537.36" etag="ZLMQmXmvHuSWTJH_z6JD" version="22.0.2" type="device">
  <diagram name="Page-1" id="6C6t73wL5U_exs-AvIqG">
    <mxGraphModel dx="4435" dy="2093" grid="1" gridSize="10" guides="1" tooltips="1" connect="1" arrows="1" fold="1" page="1" pageScale="1" pageWidth="850" pageHeight="1100" math="0" shadow="0">
      <root>
        <mxCell id="0" />
        <mxCell id="1" parent="0" />
        <mxCell id="2Kqc3Tl-5rJN90L1hJIf-26" value="" style="rounded=0;whiteSpace=wrap;html=1;" vertex="1" parent="1">
          <mxGeometry x="30" y="590" width="140" height="480" as="geometry" />
        </mxCell>
        <mxCell id="EvVna4faZcCAItMm56S3-2" value="" style="rounded=0;whiteSpace=wrap;html=1;" parent="1" vertex="1">
          <mxGeometry x="320" y="600" width="240" height="1080" as="geometry" />
        </mxCell>
        <mxCell id="EvVna4faZcCAItMm56S3-3" value="1" style="whiteSpace=wrap;html=1;aspect=fixed;" parent="1" vertex="1">
          <mxGeometry x="290" y="670" width="30" height="30" as="geometry" />
        </mxCell>
        <mxCell id="EvVna4faZcCAItMm56S3-4" value="2" style="whiteSpace=wrap;html=1;aspect=fixed;" parent="1" vertex="1">
          <mxGeometry x="290" y="720" width="30" height="30" as="geometry" />
        </mxCell>
        <mxCell id="EvVna4faZcCAItMm56S3-5" value="3" style="whiteSpace=wrap;html=1;aspect=fixed;" parent="1" vertex="1">
          <mxGeometry x="290" y="770" width="30" height="30" as="geometry" />
        </mxCell>
        <mxCell id="EvVna4faZcCAItMm56S3-6" value="4" style="whiteSpace=wrap;html=1;aspect=fixed;" parent="1" vertex="1">
          <mxGeometry x="290" y="820" width="30" height="30" as="geometry" />
        </mxCell>
        <mxCell id="EvVna4faZcCAItMm56S3-7" value="5" style="whiteSpace=wrap;html=1;aspect=fixed;" parent="1" vertex="1">
          <mxGeometry x="290" y="870" width="30" height="30" as="geometry" />
        </mxCell>
        <mxCell id="EvVna4faZcCAItMm56S3-8" value="6" style="whiteSpace=wrap;html=1;aspect=fixed;" parent="1" vertex="1">
          <mxGeometry x="290" y="920" width="30" height="30" as="geometry" />
        </mxCell>
        <mxCell id="EvVna4faZcCAItMm56S3-9" value="7" style="whiteSpace=wrap;html=1;aspect=fixed;" parent="1" vertex="1">
          <mxGeometry x="290" y="970" width="30" height="30" as="geometry" />
        </mxCell>
        <mxCell id="EvVna4faZcCAItMm56S3-10" value="8" style="whiteSpace=wrap;html=1;aspect=fixed;" parent="1" vertex="1">
          <mxGeometry x="290" y="1020" width="30" height="30" as="geometry" />
        </mxCell>
        <mxCell id="EvVna4faZcCAItMm56S3-11" value="9" style="whiteSpace=wrap;html=1;aspect=fixed;" parent="1" vertex="1">
          <mxGeometry x="290" y="1070" width="30" height="30" as="geometry" />
        </mxCell>
        <mxCell id="EvVna4faZcCAItMm56S3-12" value="10" style="whiteSpace=wrap;html=1;aspect=fixed;" parent="1" vertex="1">
          <mxGeometry x="290" y="1120" width="30" height="30" as="geometry" />
        </mxCell>
        <mxCell id="EvVna4faZcCAItMm56S3-13" value="11" style="whiteSpace=wrap;html=1;aspect=fixed;" parent="1" vertex="1">
          <mxGeometry x="290" y="1170" width="30" height="30" as="geometry" />
        </mxCell>
        <mxCell id="EvVna4faZcCAItMm56S3-14" value="12" style="whiteSpace=wrap;html=1;aspect=fixed;" parent="1" vertex="1">
          <mxGeometry x="290" y="1220" width="30" height="30" as="geometry" />
        </mxCell>
        <mxCell id="EvVna4faZcCAItMm56S3-15" value="13" style="whiteSpace=wrap;html=1;aspect=fixed;" parent="1" vertex="1">
          <mxGeometry x="290" y="1270" width="30" height="30" as="geometry" />
        </mxCell>
        <mxCell id="EvVna4faZcCAItMm56S3-16" value="14" style="whiteSpace=wrap;html=1;aspect=fixed;" parent="1" vertex="1">
          <mxGeometry x="290" y="1320" width="30" height="30" as="geometry" />
        </mxCell>
        <mxCell id="EvVna4faZcCAItMm56S3-17" value="15" style="whiteSpace=wrap;html=1;aspect=fixed;" parent="1" vertex="1">
          <mxGeometry x="290" y="1370" width="30" height="30" as="geometry" />
        </mxCell>
        <mxCell id="EvVna4faZcCAItMm56S3-18" value="16" style="whiteSpace=wrap;html=1;aspect=fixed;" parent="1" vertex="1">
          <mxGeometry x="290" y="1420" width="30" height="30" as="geometry" />
        </mxCell>
        <mxCell id="EvVna4faZcCAItMm56S3-19" value="17" style="whiteSpace=wrap;html=1;aspect=fixed;" parent="1" vertex="1">
          <mxGeometry x="290" y="1470" width="30" height="30" as="geometry" />
        </mxCell>
        <mxCell id="EvVna4faZcCAItMm56S3-20" value="18" style="whiteSpace=wrap;html=1;aspect=fixed;" parent="1" vertex="1">
          <mxGeometry x="290" y="1520" width="30" height="30" as="geometry" />
        </mxCell>
        <mxCell id="EvVna4faZcCAItMm56S3-21" value="19" style="whiteSpace=wrap;html=1;aspect=fixed;" parent="1" vertex="1">
          <mxGeometry x="290" y="1570" width="30" height="30" as="geometry" />
        </mxCell>
        <mxCell id="EvVna4faZcCAItMm56S3-22" value="20" style="whiteSpace=wrap;html=1;aspect=fixed;" parent="1" vertex="1">
          <mxGeometry x="290" y="1620" width="30" height="30" as="geometry" />
        </mxCell>
        <mxCell id="EvVna4faZcCAItMm56S3-23" value="40" style="whiteSpace=wrap;html=1;aspect=fixed;" parent="1" vertex="1">
          <mxGeometry x="560" y="670" width="30" height="30" as="geometry" />
        </mxCell>
        <mxCell id="EvVna4faZcCAItMm56S3-24" value="39" style="whiteSpace=wrap;html=1;aspect=fixed;" parent="1" vertex="1">
          <mxGeometry x="560" y="720" width="30" height="30" as="geometry" />
        </mxCell>
        <mxCell id="EvVna4faZcCAItMm56S3-25" value="38" style="whiteSpace=wrap;html=1;aspect=fixed;" parent="1" vertex="1">
          <mxGeometry x="560" y="770" width="30" height="30" as="geometry" />
        </mxCell>
        <mxCell id="EvVna4faZcCAItMm56S3-26" value="37" style="whiteSpace=wrap;html=1;aspect=fixed;" parent="1" vertex="1">
          <mxGeometry x="560" y="820" width="30" height="30" as="geometry" />
        </mxCell>
        <mxCell id="EvVna4faZcCAItMm56S3-27" value="36" style="whiteSpace=wrap;html=1;aspect=fixed;" parent="1" vertex="1">
          <mxGeometry x="560" y="870" width="30" height="30" as="geometry" />
        </mxCell>
        <mxCell id="EvVna4faZcCAItMm56S3-28" value="35" style="whiteSpace=wrap;html=1;aspect=fixed;" parent="1" vertex="1">
          <mxGeometry x="560" y="920" width="30" height="30" as="geometry" />
        </mxCell>
        <mxCell id="EvVna4faZcCAItMm56S3-29" value="34" style="whiteSpace=wrap;html=1;aspect=fixed;" parent="1" vertex="1">
          <mxGeometry x="560" y="970" width="30" height="30" as="geometry" />
        </mxCell>
        <mxCell id="EvVna4faZcCAItMm56S3-30" value="33" style="whiteSpace=wrap;html=1;aspect=fixed;" parent="1" vertex="1">
          <mxGeometry x="560" y="1020" width="30" height="30" as="geometry" />
        </mxCell>
        <mxCell id="EvVna4faZcCAItMm56S3-31" value="32" style="whiteSpace=wrap;html=1;aspect=fixed;" parent="1" vertex="1">
          <mxGeometry x="560" y="1070" width="30" height="30" as="geometry" />
        </mxCell>
        <mxCell id="EvVna4faZcCAItMm56S3-32" value="31" style="whiteSpace=wrap;html=1;aspect=fixed;" parent="1" vertex="1">
          <mxGeometry x="560" y="1120" width="30" height="30" as="geometry" />
        </mxCell>
        <mxCell id="EvVna4faZcCAItMm56S3-33" value="30" style="whiteSpace=wrap;html=1;aspect=fixed;" parent="1" vertex="1">
          <mxGeometry x="560" y="1170" width="30" height="30" as="geometry" />
        </mxCell>
        <mxCell id="EvVna4faZcCAItMm56S3-34" value="29" style="whiteSpace=wrap;html=1;aspect=fixed;" parent="1" vertex="1">
          <mxGeometry x="560" y="1220" width="30" height="30" as="geometry" />
        </mxCell>
        <mxCell id="EvVna4faZcCAItMm56S3-35" value="28" style="whiteSpace=wrap;html=1;aspect=fixed;" parent="1" vertex="1">
          <mxGeometry x="560" y="1270" width="30" height="30" as="geometry" />
        </mxCell>
        <mxCell id="EvVna4faZcCAItMm56S3-36" value="27" style="whiteSpace=wrap;html=1;aspect=fixed;" parent="1" vertex="1">
          <mxGeometry x="560" y="1320" width="30" height="30" as="geometry" />
        </mxCell>
        <mxCell id="EvVna4faZcCAItMm56S3-37" value="26" style="whiteSpace=wrap;html=1;aspect=fixed;" parent="1" vertex="1">
          <mxGeometry x="560" y="1370" width="30" height="30" as="geometry" />
        </mxCell>
        <mxCell id="EvVna4faZcCAItMm56S3-38" value="25" style="whiteSpace=wrap;html=1;aspect=fixed;" parent="1" vertex="1">
          <mxGeometry x="560" y="1420" width="30" height="30" as="geometry" />
        </mxCell>
        <mxCell id="EvVna4faZcCAItMm56S3-39" value="24" style="whiteSpace=wrap;html=1;aspect=fixed;" parent="1" vertex="1">
          <mxGeometry x="560" y="1470" width="30" height="30" as="geometry" />
        </mxCell>
        <mxCell id="EvVna4faZcCAItMm56S3-40" value="23" style="whiteSpace=wrap;html=1;aspect=fixed;" parent="1" vertex="1">
          <mxGeometry x="560" y="1520" width="30" height="30" as="geometry" />
        </mxCell>
        <mxCell id="EvVna4faZcCAItMm56S3-41" value="22" style="whiteSpace=wrap;html=1;aspect=fixed;" parent="1" vertex="1">
          <mxGeometry x="560" y="1570" width="30" height="30" as="geometry" />
        </mxCell>
        <mxCell id="EvVna4faZcCAItMm56S3-42" value="21" style="whiteSpace=wrap;html=1;aspect=fixed;" parent="1" vertex="1">
          <mxGeometry x="560" y="1620" width="30" height="30" as="geometry" />
        </mxCell>
        <mxCell id="EvVna4faZcCAItMm56S3-43" value="PB0 (XCK/T0)" style="text;html=1;strokeColor=none;fillColor=none;align=left;verticalAlign=middle;whiteSpace=wrap;rounded=0;" parent="1" vertex="1">
          <mxGeometry x="320" y="670" width="100" height="30" as="geometry" />
        </mxCell>
        <mxCell id="EvVna4faZcCAItMm56S3-44" value="&lt;div align=&quot;right&quot;&gt;PA0 (ADC0)&lt;/div&gt;" style="text;html=1;strokeColor=none;fillColor=none;align=right;verticalAlign=middle;whiteSpace=wrap;rounded=0;" parent="1" vertex="1">
          <mxGeometry x="460" y="670" width="100" height="30" as="geometry" />
        </mxCell>
        <mxCell id="EvVna4faZcCAItMm56S3-45" value="PB1 (T1)" style="text;html=1;strokeColor=none;fillColor=none;align=left;verticalAlign=middle;whiteSpace=wrap;rounded=0;" parent="1" vertex="1">
          <mxGeometry x="320" y="720" width="100" height="30" as="geometry" />
        </mxCell>
        <mxCell id="EvVna4faZcCAItMm56S3-46" value="&lt;div align=&quot;right&quot;&gt;PA1 (ADC1)&lt;/div&gt;" style="text;html=1;strokeColor=none;fillColor=none;align=right;verticalAlign=middle;whiteSpace=wrap;rounded=0;" parent="1" vertex="1">
          <mxGeometry x="460" y="720" width="100" height="30" as="geometry" />
        </mxCell>
        <mxCell id="EvVna4faZcCAItMm56S3-47" value="PB2 (INT2/AINO0)" style="text;html=1;strokeColor=none;fillColor=none;align=left;verticalAlign=middle;whiteSpace=wrap;rounded=0;" parent="1" vertex="1">
          <mxGeometry x="320" y="770" width="110" height="30" as="geometry" />
        </mxCell>
        <mxCell id="EvVna4faZcCAItMm56S3-48" value="&lt;div align=&quot;right&quot;&gt;PA2 (ADC2)&lt;/div&gt;" style="text;html=1;strokeColor=none;fillColor=none;align=right;verticalAlign=middle;whiteSpace=wrap;rounded=0;" parent="1" vertex="1">
          <mxGeometry x="460" y="770" width="100" height="30" as="geometry" />
        </mxCell>
        <mxCell id="EvVna4faZcCAItMm56S3-49" value="PB3 (OC0/AIN1)" style="text;html=1;strokeColor=none;fillColor=none;align=left;verticalAlign=middle;whiteSpace=wrap;rounded=0;" parent="1" vertex="1">
          <mxGeometry x="320" y="820" width="100" height="30" as="geometry" />
        </mxCell>
        <mxCell id="EvVna4faZcCAItMm56S3-50" value="&lt;div align=&quot;right&quot;&gt;PA3 (ADC3)&lt;/div&gt;" style="text;html=1;strokeColor=none;fillColor=none;align=right;verticalAlign=middle;whiteSpace=wrap;rounded=0;" parent="1" vertex="1">
          <mxGeometry x="460" y="820" width="100" height="30" as="geometry" />
        </mxCell>
        <mxCell id="EvVna4faZcCAItMm56S3-51" value="&lt;div align=&quot;left&quot;&gt;PB4 (SS)&lt;/div&gt;" style="text;html=1;strokeColor=none;fillColor=none;align=left;verticalAlign=middle;whiteSpace=wrap;rounded=0;" parent="1" vertex="1">
          <mxGeometry x="320" y="870" width="100" height="30" as="geometry" />
        </mxCell>
        <mxCell id="EvVna4faZcCAItMm56S3-52" value="&lt;div align=&quot;right&quot;&gt;PA4 (ADC4)&lt;/div&gt;" style="text;html=1;strokeColor=none;fillColor=none;align=right;verticalAlign=middle;whiteSpace=wrap;rounded=0;" parent="1" vertex="1">
          <mxGeometry x="460" y="870" width="100" height="30" as="geometry" />
        </mxCell>
        <mxCell id="EvVna4faZcCAItMm56S3-53" value="&lt;div align=&quot;left&quot;&gt;PB5 (MOSI)&lt;br&gt;&lt;/div&gt;" style="text;html=1;strokeColor=none;fillColor=none;align=left;verticalAlign=middle;whiteSpace=wrap;rounded=0;" parent="1" vertex="1">
          <mxGeometry x="320" y="920" width="100" height="30" as="geometry" />
        </mxCell>
        <mxCell id="EvVna4faZcCAItMm56S3-54" value="PA5 (ADC5)" style="text;html=1;strokeColor=none;fillColor=none;align=right;verticalAlign=middle;whiteSpace=wrap;rounded=0;" parent="1" vertex="1">
          <mxGeometry x="460" y="920" width="100" height="30" as="geometry" />
        </mxCell>
        <mxCell id="EvVna4faZcCAItMm56S3-55" value="PB6 (MISO)" style="text;html=1;strokeColor=none;fillColor=none;align=left;verticalAlign=middle;whiteSpace=wrap;rounded=0;" parent="1" vertex="1">
          <mxGeometry x="320" y="970" width="100" height="30" as="geometry" />
        </mxCell>
        <mxCell id="EvVna4faZcCAItMm56S3-56" value="PA6 (ADC6)" style="text;html=1;strokeColor=none;fillColor=none;align=right;verticalAlign=middle;whiteSpace=wrap;rounded=0;" parent="1" vertex="1">
          <mxGeometry x="460" y="970" width="100" height="30" as="geometry" />
        </mxCell>
        <mxCell id="EvVna4faZcCAItMm56S3-57" value="PB7 (SCK)" style="text;html=1;strokeColor=none;fillColor=none;align=left;verticalAlign=middle;whiteSpace=wrap;rounded=0;" parent="1" vertex="1">
          <mxGeometry x="320" y="1020" width="100" height="30" as="geometry" />
        </mxCell>
        <mxCell id="EvVna4faZcCAItMm56S3-58" value="PA7 (ADC7)" style="text;html=1;strokeColor=none;fillColor=none;align=right;verticalAlign=middle;whiteSpace=wrap;rounded=0;" parent="1" vertex="1">
          <mxGeometry x="460" y="1020" width="100" height="30" as="geometry" />
        </mxCell>
        <mxCell id="EvVna4faZcCAItMm56S3-59" value="NOT RESET" style="text;html=1;strokeColor=none;fillColor=none;align=left;verticalAlign=middle;whiteSpace=wrap;rounded=0;" parent="1" vertex="1">
          <mxGeometry x="320" y="1070" width="100" height="30" as="geometry" />
        </mxCell>
        <mxCell id="EvVna4faZcCAItMm56S3-60" value="AREF" style="text;html=1;strokeColor=none;fillColor=none;align=right;verticalAlign=middle;whiteSpace=wrap;rounded=0;" parent="1" vertex="1">
          <mxGeometry x="460" y="1070" width="100" height="30" as="geometry" />
        </mxCell>
        <mxCell id="EvVna4faZcCAItMm56S3-61" value="VCC" style="text;html=1;strokeColor=none;fillColor=none;align=left;verticalAlign=middle;whiteSpace=wrap;rounded=0;" parent="1" vertex="1">
          <mxGeometry x="320" y="1120" width="100" height="30" as="geometry" />
        </mxCell>
        <mxCell id="EvVna4faZcCAItMm56S3-62" value="GND" style="text;html=1;strokeColor=none;fillColor=none;align=right;verticalAlign=middle;whiteSpace=wrap;rounded=0;" parent="1" vertex="1">
          <mxGeometry x="460" y="1120" width="100" height="30" as="geometry" />
        </mxCell>
        <mxCell id="EvVna4faZcCAItMm56S3-63" value="GND" style="text;html=1;strokeColor=none;fillColor=none;align=left;verticalAlign=middle;whiteSpace=wrap;rounded=0;" parent="1" vertex="1">
          <mxGeometry x="320" y="1170" width="100" height="30" as="geometry" />
        </mxCell>
        <mxCell id="EvVna4faZcCAItMm56S3-64" value="AVCC" style="text;html=1;strokeColor=none;fillColor=none;align=right;verticalAlign=middle;whiteSpace=wrap;rounded=0;" parent="1" vertex="1">
          <mxGeometry x="460" y="1170" width="100" height="30" as="geometry" />
        </mxCell>
        <mxCell id="EvVna4faZcCAItMm56S3-65" value="XTAL1" style="text;html=1;strokeColor=none;fillColor=none;align=left;verticalAlign=middle;whiteSpace=wrap;rounded=0;" parent="1" vertex="1">
          <mxGeometry x="320" y="1220" width="100" height="30" as="geometry" />
        </mxCell>
        <mxCell id="EvVna4faZcCAItMm56S3-66" value="PC7 (TOSC2)" style="text;html=1;strokeColor=none;fillColor=none;align=right;verticalAlign=middle;whiteSpace=wrap;rounded=0;" parent="1" vertex="1">
          <mxGeometry x="460" y="1220" width="100" height="30" as="geometry" />
        </mxCell>
        <mxCell id="EvVna4faZcCAItMm56S3-67" value="PD0 (RXD)" style="text;html=1;strokeColor=none;fillColor=none;align=left;verticalAlign=middle;whiteSpace=wrap;rounded=0;" parent="1" vertex="1">
          <mxGeometry x="320" y="1320" width="100" height="30" as="geometry" />
        </mxCell>
        <mxCell id="EvVna4faZcCAItMm56S3-68" value="PC6 (TOSC1)" style="text;html=1;strokeColor=none;fillColor=none;align=right;verticalAlign=middle;whiteSpace=wrap;rounded=0;" parent="1" vertex="1">
          <mxGeometry x="460" y="1270" width="100" height="30" as="geometry" />
        </mxCell>
        <mxCell id="EvVna4faZcCAItMm56S3-69" value="PD1 (TXD)" style="text;html=1;strokeColor=none;fillColor=none;align=left;verticalAlign=middle;whiteSpace=wrap;rounded=0;" parent="1" vertex="1">
          <mxGeometry x="320" y="1370" width="100" height="30" as="geometry" />
        </mxCell>
        <mxCell id="EvVna4faZcCAItMm56S3-70" value="PC5 (TDI)" style="text;html=1;strokeColor=none;fillColor=none;align=right;verticalAlign=middle;whiteSpace=wrap;rounded=0;" parent="1" vertex="1">
          <mxGeometry x="460" y="1320" width="100" height="30" as="geometry" />
        </mxCell>
        <mxCell id="EvVna4faZcCAItMm56S3-71" value="PD2 (INT0)" style="text;html=1;strokeColor=none;fillColor=none;align=left;verticalAlign=middle;whiteSpace=wrap;rounded=0;" parent="1" vertex="1">
          <mxGeometry x="320" y="1420" width="100" height="30" as="geometry" />
        </mxCell>
        <mxCell id="EvVna4faZcCAItMm56S3-72" value="PC4 (TDO)" style="text;html=1;strokeColor=none;fillColor=none;align=right;verticalAlign=middle;whiteSpace=wrap;rounded=0;" parent="1" vertex="1">
          <mxGeometry x="460" y="1370" width="100" height="30" as="geometry" />
        </mxCell>
        <mxCell id="EvVna4faZcCAItMm56S3-73" value="PD3 (INT1)" style="text;html=1;strokeColor=none;fillColor=none;align=left;verticalAlign=middle;whiteSpace=wrap;rounded=0;" parent="1" vertex="1">
          <mxGeometry x="320" y="1470" width="100" height="30" as="geometry" />
        </mxCell>
        <mxCell id="EvVna4faZcCAItMm56S3-74" value="PC3 (TMS)" style="text;html=1;strokeColor=none;fillColor=none;align=right;verticalAlign=middle;whiteSpace=wrap;rounded=0;" parent="1" vertex="1">
          <mxGeometry x="460" y="1420" width="100" height="30" as="geometry" />
        </mxCell>
        <mxCell id="EvVna4faZcCAItMm56S3-75" value="PD4 (OS1B)" style="text;html=1;strokeColor=none;fillColor=none;align=left;verticalAlign=middle;whiteSpace=wrap;rounded=0;" parent="1" vertex="1">
          <mxGeometry x="320" y="1520" width="100" height="30" as="geometry" />
        </mxCell>
        <mxCell id="EvVna4faZcCAItMm56S3-76" value="PC2 (TCK)" style="text;html=1;strokeColor=none;fillColor=none;align=right;verticalAlign=middle;whiteSpace=wrap;rounded=0;" parent="1" vertex="1">
          <mxGeometry x="460" y="1470" width="100" height="30" as="geometry" />
        </mxCell>
        <mxCell id="EvVna4faZcCAItMm56S3-77" value="PC1 (SDA)" style="text;html=1;strokeColor=none;fillColor=none;align=right;verticalAlign=middle;whiteSpace=wrap;rounded=0;" parent="1" vertex="1">
          <mxGeometry x="460" y="1520" width="100" height="30" as="geometry" />
        </mxCell>
        <mxCell id="EvVna4faZcCAItMm56S3-78" value="PC0 (SCL)" style="text;html=1;strokeColor=none;fillColor=none;align=right;verticalAlign=middle;whiteSpace=wrap;rounded=0;" parent="1" vertex="1">
          <mxGeometry x="460" y="1570" width="100" height="30" as="geometry" />
        </mxCell>
        <mxCell id="EvVna4faZcCAItMm56S3-79" value="PD7 (OC2)" style="text;html=1;strokeColor=none;fillColor=none;align=right;verticalAlign=middle;whiteSpace=wrap;rounded=0;" parent="1" vertex="1">
          <mxGeometry x="460" y="1620" width="100" height="30" as="geometry" />
        </mxCell>
        <mxCell id="EvVna4faZcCAItMm56S3-80" value="XTAL2" style="text;html=1;strokeColor=none;fillColor=none;align=left;verticalAlign=middle;whiteSpace=wrap;rounded=0;" parent="1" vertex="1">
          <mxGeometry x="320" y="1270" width="100" height="30" as="geometry" />
        </mxCell>
        <mxCell id="EvVna4faZcCAItMm56S3-81" value="PD5 (OS1A)" style="text;html=1;strokeColor=none;fillColor=none;align=left;verticalAlign=middle;whiteSpace=wrap;rounded=0;" parent="1" vertex="1">
          <mxGeometry x="320" y="1570" width="100" height="30" as="geometry" />
        </mxCell>
        <mxCell id="EvVna4faZcCAItMm56S3-82" value="PD6 (ICP)" style="text;html=1;strokeColor=none;fillColor=none;align=left;verticalAlign=middle;whiteSpace=wrap;rounded=0;" parent="1" vertex="1">
          <mxGeometry x="320" y="1620" width="100" height="30" as="geometry" />
        </mxCell>
        <mxCell id="EvVna4faZcCAItMm56S3-83" value="" style="ellipse;whiteSpace=wrap;html=1;aspect=fixed;fillColor=#f5f5f5;fontColor=#333333;strokeColor=#666666;" parent="1" vertex="1">
          <mxGeometry x="330" y="610" width="20" height="20" as="geometry" />
        </mxCell>
        <mxCell id="EvVna4faZcCAItMm56S3-84" value="&lt;h1&gt;ATmega1284&lt;/h1&gt;" style="text;html=1;strokeColor=none;fillColor=none;spacing=5;spacingTop=-20;whiteSpace=wrap;overflow=hidden;rounded=0;align=center;" parent="1" vertex="1">
          <mxGeometry x="362.5" y="602.5" width="190" height="35" as="geometry" />
        </mxCell>
        <mxCell id="EvVna4faZcCAItMm56S3-407" value="" style="endArrow=none;html=1;rounded=0;strokeWidth=3;" parent="1" edge="1">
          <mxGeometry width="50" height="50" relative="1" as="geometry">
            <mxPoint x="-140" y="360" as="sourcePoint" />
            <mxPoint x="790" y="360" as="targetPoint" />
          </mxGeometry>
        </mxCell>
        <mxCell id="EvVna4faZcCAItMm56S3-408" value="" style="endArrow=none;html=1;rounded=0;strokeWidth=3;" parent="1" edge="1">
          <mxGeometry width="50" height="50" relative="1" as="geometry">
            <mxPoint x="-160" y="1800" as="sourcePoint" />
            <mxPoint x="790" y="1800" as="targetPoint" />
          </mxGeometry>
        </mxCell>
        <mxCell id="EvVna4faZcCAItMm56S3-409" value="" style="endArrow=none;html=1;rounded=0;strokeWidth=3;" parent="1" edge="1">
          <mxGeometry width="50" height="50" relative="1" as="geometry">
            <mxPoint x="-160" y="1840" as="sourcePoint" />
            <mxPoint x="790" y="1840" as="targetPoint" />
          </mxGeometry>
        </mxCell>
        <mxCell id="EvVna4faZcCAItMm56S3-410" value="" style="endArrow=none;html=1;rounded=0;strokeWidth=3;" parent="1" edge="1">
          <mxGeometry width="50" height="50" relative="1" as="geometry">
            <mxPoint x="-160" y="1880" as="sourcePoint" />
            <mxPoint x="790" y="1880" as="targetPoint" />
          </mxGeometry>
        </mxCell>
        <mxCell id="EvVna4faZcCAItMm56S3-487" value="" style="group" parent="1" vertex="1" connectable="0">
          <mxGeometry x="40" y="640" width="130" height="180" as="geometry" />
        </mxCell>
        <mxCell id="EvVna4faZcCAItMm56S3-488" value="" style="rounded=0;whiteSpace=wrap;html=1;" parent="EvVna4faZcCAItMm56S3-487" vertex="1">
          <mxGeometry width="120" height="180" as="geometry" />
        </mxCell>
        <mxCell id="EvVna4faZcCAItMm56S3-489" value="&lt;div&gt;&lt;span style=&quot;font-weight: normal;&quot;&gt;7. PWM1&lt;/span&gt;&lt;/div&gt;&lt;div&gt;&lt;span style=&quot;font-weight: normal;&quot;&gt;5. DIR1&lt;br&gt;&lt;/span&gt;&lt;/div&gt;&lt;div&gt;&lt;span style=&quot;font-weight: normal;&quot;&gt;3. VCC&lt;br&gt;&lt;/span&gt;&lt;/div&gt;&lt;div&gt;&lt;span style=&quot;font-weight: normal;&quot;&gt;1. GND&lt;br&gt;&lt;/span&gt;&lt;/div&gt;" style="text;whiteSpace=wrap;html=1;align=left;fontStyle=1" parent="EvVna4faZcCAItMm56S3-487" vertex="1">
          <mxGeometry x="50" y="50" width="60" height="86.15" as="geometry" />
        </mxCell>
        <mxCell id="EvVna4faZcCAItMm56S3-490" value="5." style="text;html=1;strokeColor=none;fillColor=none;align=center;verticalAlign=middle;whiteSpace=wrap;rounded=0;" parent="EvVna4faZcCAItMm56S3-487" vertex="1">
          <mxGeometry y="70" width="20" height="20" as="geometry" />
        </mxCell>
        <mxCell id="EvVna4faZcCAItMm56S3-491" value="3." style="text;html=1;strokeColor=none;fillColor=none;align=center;verticalAlign=middle;whiteSpace=wrap;rounded=0;" parent="EvVna4faZcCAItMm56S3-487" vertex="1">
          <mxGeometry y="100" width="20" height="20" as="geometry" />
        </mxCell>
        <mxCell id="EvVna4faZcCAItMm56S3-492" value="1" style="text;html=1;strokeColor=none;fillColor=none;align=center;verticalAlign=middle;whiteSpace=wrap;rounded=0;" parent="EvVna4faZcCAItMm56S3-487" vertex="1">
          <mxGeometry y="130" width="20" height="20" as="geometry" />
        </mxCell>
        <mxCell id="EvVna4faZcCAItMm56S3-493" value="7." style="text;html=1;strokeColor=none;fillColor=none;align=center;verticalAlign=middle;whiteSpace=wrap;rounded=0;" parent="EvVna4faZcCAItMm56S3-487" vertex="1">
          <mxGeometry y="40" width="20" height="20" as="geometry" />
        </mxCell>
        <mxCell id="EvVna4faZcCAItMm56S3-494" value="&lt;b&gt;Motor H&lt;br&gt;&lt;/b&gt;" style="text;whiteSpace=wrap;html=1;fontSize=25;" parent="EvVna4faZcCAItMm56S3-487" vertex="1">
          <mxGeometry x="10" width="120" height="40" as="geometry" />
        </mxCell>
        <mxCell id="EvVna4faZcCAItMm56S3-503" value="" style="group" parent="1" vertex="1" connectable="0">
          <mxGeometry x="40" y="870" width="130" height="180" as="geometry" />
        </mxCell>
        <mxCell id="EvVna4faZcCAItMm56S3-504" value="" style="rounded=0;whiteSpace=wrap;html=1;" parent="EvVna4faZcCAItMm56S3-503" vertex="1">
          <mxGeometry width="120" height="180" as="geometry" />
        </mxCell>
        <mxCell id="EvVna4faZcCAItMm56S3-505" value="&lt;div&gt;&lt;span style=&quot;font-weight: normal;&quot;&gt;8. PWM2&lt;br&gt;&lt;/span&gt;&lt;/div&gt;&lt;div&gt;&lt;span style=&quot;font-weight: normal;&quot;&gt;6. DIR2&lt;br&gt;&lt;/span&gt;&lt;/div&gt;&lt;div&gt;&lt;span style=&quot;font-weight: normal;&quot;&gt;4. VCC&lt;br&gt;&lt;/span&gt;&lt;/div&gt;&lt;div&gt;&lt;span style=&quot;font-weight: normal;&quot;&gt;2. GND&lt;br&gt;&lt;/span&gt;&lt;/div&gt;" style="text;whiteSpace=wrap;html=1;align=left;fontStyle=1" parent="EvVna4faZcCAItMm56S3-503" vertex="1">
          <mxGeometry x="50" y="50" width="60" height="86.15" as="geometry" />
        </mxCell>
        <mxCell id="EvVna4faZcCAItMm56S3-506" value="6." style="text;html=1;strokeColor=none;fillColor=none;align=center;verticalAlign=middle;whiteSpace=wrap;rounded=0;" parent="EvVna4faZcCAItMm56S3-503" vertex="1">
          <mxGeometry y="70" width="20" height="20" as="geometry" />
        </mxCell>
        <mxCell id="EvVna4faZcCAItMm56S3-507" value="4." style="text;html=1;strokeColor=none;fillColor=none;align=center;verticalAlign=middle;whiteSpace=wrap;rounded=0;" parent="EvVna4faZcCAItMm56S3-503" vertex="1">
          <mxGeometry y="100" width="20" height="20" as="geometry" />
        </mxCell>
        <mxCell id="EvVna4faZcCAItMm56S3-508" value="2." style="text;html=1;strokeColor=none;fillColor=none;align=center;verticalAlign=middle;whiteSpace=wrap;rounded=0;" parent="EvVna4faZcCAItMm56S3-503" vertex="1">
          <mxGeometry y="130" width="20" height="20" as="geometry" />
        </mxCell>
        <mxCell id="EvVna4faZcCAItMm56S3-509" value="8." style="text;html=1;strokeColor=none;fillColor=none;align=center;verticalAlign=middle;whiteSpace=wrap;rounded=0;" parent="EvVna4faZcCAItMm56S3-503" vertex="1">
          <mxGeometry y="40" width="20" height="20" as="geometry" />
        </mxCell>
        <mxCell id="EvVna4faZcCAItMm56S3-510" value="&lt;b&gt;Motor V&lt;br&gt;&lt;/b&gt;" style="text;whiteSpace=wrap;html=1;fontSize=25;" parent="EvVna4faZcCAItMm56S3-503" vertex="1">
          <mxGeometry x="10" width="120" height="40" as="geometry" />
        </mxCell>
        <mxCell id="EvVna4faZcCAItMm56S3-511" value="" style="endArrow=none;html=1;rounded=0;entryX=1;entryY=0.5;entryDx=0;entryDy=0;exitX=0;exitY=0.5;exitDx=0;exitDy=0;" parent="1" source="EvVna4faZcCAItMm56S3-506" target="EvVna4faZcCAItMm56S3-23" edge="1">
          <mxGeometry width="50" height="50" relative="1" as="geometry">
            <mxPoint x="-20" y="950" as="sourcePoint" />
            <mxPoint x="40" y="570" as="targetPoint" />
            <Array as="points">
              <mxPoint x="-20" y="950" />
              <mxPoint x="-20" y="550" />
              <mxPoint x="330" y="550" />
              <mxPoint x="620" y="550" />
              <mxPoint x="620" y="685" />
            </Array>
          </mxGeometry>
        </mxCell>
        <mxCell id="EvVna4faZcCAItMm56S3-512" value="" style="endArrow=none;html=1;rounded=0;entryX=1;entryY=0.5;entryDx=0;entryDy=0;exitX=0;exitY=0.5;exitDx=0;exitDy=0;" parent="1" source="EvVna4faZcCAItMm56S3-490" target="EvVna4faZcCAItMm56S3-24" edge="1">
          <mxGeometry width="50" height="50" relative="1" as="geometry">
            <mxPoint x="50" y="700" as="sourcePoint" />
            <mxPoint x="600" y="695" as="targetPoint" />
            <Array as="points">
              <mxPoint x="10" y="720" />
              <mxPoint x="10" y="580" />
              <mxPoint x="340" y="580" />
              <mxPoint x="650" y="580" />
              <mxPoint x="650" y="735" />
            </Array>
          </mxGeometry>
        </mxCell>
        <mxCell id="EvVna4faZcCAItMm56S3-513" value="" style="endArrow=none;html=1;rounded=0;entryX=0;entryY=0.5;entryDx=0;entryDy=0;strokeWidth=2;exitX=0;exitY=0.5;exitDx=0;exitDy=0;" parent="1" source="EvVna4faZcCAItMm56S3-509" target="EvVna4faZcCAItMm56S3-20" edge="1">
          <mxGeometry width="50" height="50" relative="1" as="geometry">
            <mxPoint x="10" y="940" as="sourcePoint" />
            <mxPoint x="130" y="1500" as="targetPoint" />
            <Array as="points">
              <mxPoint x="10" y="920" />
              <mxPoint x="10" y="1535" />
            </Array>
          </mxGeometry>
        </mxCell>
        <mxCell id="EvVna4faZcCAItMm56S3-514" value="" style="endArrow=none;html=1;rounded=0;exitX=0;exitY=0.5;exitDx=0;exitDy=0;strokeWidth=1;" parent="1" source="EvVna4faZcCAItMm56S3-491" edge="1">
          <mxGeometry width="50" height="50" relative="1" as="geometry">
            <mxPoint x="-200" y="590" as="sourcePoint" />
            <mxPoint x="-50" y="360" as="targetPoint" />
            <Array as="points">
              <mxPoint x="-50" y="750" />
            </Array>
          </mxGeometry>
        </mxCell>
        <mxCell id="EvVna4faZcCAItMm56S3-515" value="" style="endArrow=none;html=1;rounded=0;exitX=0;exitY=0.5;exitDx=0;exitDy=0;strokeWidth=1;" parent="1" edge="1">
          <mxGeometry width="50" height="50" relative="1" as="geometry">
            <mxPoint x="40" y="982.5" as="sourcePoint" />
            <mxPoint x="-50" y="592.5" as="targetPoint" />
            <Array as="points">
              <mxPoint x="-50" y="982.5" />
            </Array>
          </mxGeometry>
        </mxCell>
        <mxCell id="EvVna4faZcCAItMm56S3-516" value="" style="endArrow=none;html=1;rounded=0;entryX=0;entryY=0.5;entryDx=0;entryDy=0;strokeWidth=2;exitX=0;exitY=0.5;exitDx=0;exitDy=0;" parent="1" source="EvVna4faZcCAItMm56S3-493" target="EvVna4faZcCAItMm56S3-21" edge="1">
          <mxGeometry width="50" height="50" relative="1" as="geometry">
            <mxPoint x="-80" y="680" as="sourcePoint" />
            <mxPoint x="-60" y="1520" as="targetPoint" />
            <Array as="points">
              <mxPoint x="-80" y="690" />
              <mxPoint x="-80" y="1585" />
            </Array>
          </mxGeometry>
        </mxCell>
        <mxCell id="EvVna4faZcCAItMm56S3-517" value="" style="endArrow=none;html=1;rounded=0;entryX=0;entryY=0.75;entryDx=0;entryDy=0;strokeWidth=4;" parent="1" target="EvVna4faZcCAItMm56S3-508" edge="1">
          <mxGeometry width="50" height="50" relative="1" as="geometry">
            <mxPoint x="-110" y="1800" as="sourcePoint" />
            <mxPoint x="140" y="1720" as="targetPoint" />
            <Array as="points">
              <mxPoint x="-110" y="1015" />
            </Array>
          </mxGeometry>
        </mxCell>
        <mxCell id="EvVna4faZcCAItMm56S3-518" value="" style="endArrow=none;html=1;rounded=0;entryX=0;entryY=0.75;entryDx=0;entryDy=0;strokeWidth=4;" parent="1" edge="1">
          <mxGeometry width="50" height="50" relative="1" as="geometry">
            <mxPoint x="-110" y="1567.5" as="sourcePoint" />
            <mxPoint x="40" y="782.5" as="targetPoint" />
            <Array as="points">
              <mxPoint x="-110" y="782.5" />
            </Array>
          </mxGeometry>
        </mxCell>
        <mxCell id="EvVna4faZcCAItMm56S3-519" value="" style="endArrow=none;html=1;rounded=0;entryX=0;entryY=0.5;entryDx=0;entryDy=0;" parent="1" edge="1">
          <mxGeometry width="50" height="50" relative="1" as="geometry">
            <mxPoint x="230" y="1428.5" as="sourcePoint" />
            <mxPoint x="290" y="1336.5" as="targetPoint" />
            <Array as="points">
              <mxPoint x="230" y="1336.5" />
            </Array>
          </mxGeometry>
        </mxCell>
        <mxCell id="EvVna4faZcCAItMm56S3-520" value="" style="endArrow=none;html=1;rounded=0;entryX=0;entryY=0.5;entryDx=0;entryDy=0;" parent="1" edge="1">
          <mxGeometry width="50" height="50" relative="1" as="geometry">
            <mxPoint x="230" y="1386.5" as="sourcePoint" />
            <mxPoint x="290" y="1386.5" as="targetPoint" />
          </mxGeometry>
        </mxCell>
        <mxCell id="EvVna4faZcCAItMm56S3-521" value="" style="endArrow=none;html=1;rounded=0;exitX=1;exitY=0.5;exitDx=0;exitDy=0;" parent="1" edge="1">
          <mxGeometry width="50" height="50" relative="1" as="geometry">
            <mxPoint x="590" y="1488" as="sourcePoint" />
            <mxPoint x="640" y="1320" as="targetPoint" />
            <Array as="points">
              <mxPoint x="640" y="1488" />
            </Array>
          </mxGeometry>
        </mxCell>
        <mxCell id="EvVna4faZcCAItMm56S3-522" value="" style="endArrow=none;html=1;rounded=0;" parent="1" edge="1">
          <mxGeometry width="50" height="50" relative="1" as="geometry">
            <mxPoint x="590" y="1440" as="sourcePoint" />
            <mxPoint x="640" y="1440" as="targetPoint" />
          </mxGeometry>
        </mxCell>
        <mxCell id="EvVna4faZcCAItMm56S3-523" value="" style="endArrow=none;html=1;rounded=0;" parent="1" edge="1">
          <mxGeometry width="50" height="50" relative="1" as="geometry">
            <mxPoint x="590" y="1390" as="sourcePoint" />
            <mxPoint x="640" y="1390" as="targetPoint" />
          </mxGeometry>
        </mxCell>
        <mxCell id="EvVna4faZcCAItMm56S3-524" value="" style="endArrow=none;html=1;rounded=0;" parent="1" edge="1">
          <mxGeometry width="50" height="50" relative="1" as="geometry">
            <mxPoint x="590" y="1340" as="sourcePoint" />
            <mxPoint x="640" y="1340" as="targetPoint" />
          </mxGeometry>
        </mxCell>
        <mxCell id="EvVna4faZcCAItMm56S3-531" value="&lt;div&gt;&lt;font style=&quot;font-size: 30px;&quot;&gt;&lt;b&gt;RESET&lt;/b&gt;&lt;/font&gt;&lt;/div&gt;" style="rounded=0;whiteSpace=wrap;html=1;" parent="1" vertex="1">
          <mxGeometry x="240" y="450" width="160" height="60" as="geometry" />
        </mxCell>
        <mxCell id="EvVna4faZcCAItMm56S3-533" value="+5V" style="whiteSpace=wrap;html=1;aspect=fixed;" parent="1" vertex="1">
          <mxGeometry x="400" y="465" width="30" height="30" as="geometry" />
        </mxCell>
        <mxCell id="EvVna4faZcCAItMm56S3-534" value="GND" style="whiteSpace=wrap;html=1;aspect=fixed;" parent="1" vertex="1">
          <mxGeometry x="210" y="465" width="30" height="30" as="geometry" />
        </mxCell>
        <mxCell id="EvVna4faZcCAItMm56S3-535" value="OUT" style="whiteSpace=wrap;html=1;aspect=fixed;" parent="1" vertex="1">
          <mxGeometry x="305" y="510" width="30" height="30" as="geometry" />
        </mxCell>
        <mxCell id="EvVna4faZcCAItMm56S3-537" value="" style="endArrow=none;html=1;rounded=0;exitX=0.5;exitY=0;exitDx=0;exitDy=0;" parent="1" source="EvVna4faZcCAItMm56S3-533" edge="1">
          <mxGeometry width="50" height="50" relative="1" as="geometry">
            <mxPoint x="100" y="540" as="sourcePoint" />
            <mxPoint x="415" y="360" as="targetPoint" />
          </mxGeometry>
        </mxCell>
        <mxCell id="EvVna4faZcCAItMm56S3-541" value="" style="endArrow=none;html=1;rounded=0;exitX=0.5;exitY=1;exitDx=0;exitDy=0;entryX=0;entryY=0.5;entryDx=0;entryDy=0;" parent="1" source="EvVna4faZcCAItMm56S3-535" target="EvVna4faZcCAItMm56S3-11" edge="1">
          <mxGeometry width="50" height="50" relative="1" as="geometry">
            <mxPoint x="1000" y="550" as="sourcePoint" />
            <mxPoint x="1420" y="1098" as="targetPoint" />
            <Array as="points">
              <mxPoint x="320" y="570" />
              <mxPoint x="210" y="570" />
              <mxPoint x="210" y="1085" />
            </Array>
          </mxGeometry>
        </mxCell>
        <mxCell id="EvVna4faZcCAItMm56S3-542" value="" style="endArrow=none;html=1;rounded=0;entryX=0;entryY=0.75;entryDx=0;entryDy=0;strokeWidth=4;" parent="1" edge="1">
          <mxGeometry width="50" height="50" relative="1" as="geometry">
            <mxPoint x="-110" y="1800" as="sourcePoint" />
            <mxPoint x="290" y="1180" as="targetPoint" />
            <Array as="points">
              <mxPoint x="-110" y="1180" />
            </Array>
          </mxGeometry>
        </mxCell>
        <mxCell id="EvVna4faZcCAItMm56S3-543" value="" style="endArrow=none;html=1;rounded=0;exitX=0;exitY=0.5;exitDx=0;exitDy=0;strokeWidth=1;" parent="1" source="EvVna4faZcCAItMm56S3-12" edge="1">
          <mxGeometry width="50" height="50" relative="1" as="geometry">
            <mxPoint x="40" y="750" as="sourcePoint" />
            <mxPoint x="-50" y="360" as="targetPoint" />
            <Array as="points">
              <mxPoint x="-50" y="1135" />
            </Array>
          </mxGeometry>
        </mxCell>
        <mxCell id="EvVna4faZcCAItMm56S3-544" value="&lt;h1&gt;+5V&lt;br&gt;&lt;/h1&gt;" style="text;html=1;strokeColor=none;fillColor=none;spacing=5;spacingTop=-20;whiteSpace=wrap;overflow=hidden;rounded=0;align=center;" parent="1" vertex="1">
          <mxGeometry x="-210" y="340" width="70" height="35" as="geometry" />
        </mxCell>
        <mxCell id="EvVna4faZcCAItMm56S3-545" value="&lt;h1&gt;GND&lt;br&gt;&lt;/h1&gt;" style="text;html=1;strokeColor=none;fillColor=none;spacing=5;spacingTop=-20;whiteSpace=wrap;overflow=hidden;rounded=0;align=center;" parent="1" vertex="1">
          <mxGeometry x="-230" y="1780" width="70" height="35" as="geometry" />
        </mxCell>
        <mxCell id="EvVna4faZcCAItMm56S3-546" value="&lt;h1&gt;SDA&lt;br&gt;&lt;/h1&gt;" style="text;html=1;strokeColor=none;fillColor=none;spacing=5;spacingTop=-20;whiteSpace=wrap;overflow=hidden;rounded=0;align=center;" parent="1" vertex="1">
          <mxGeometry x="-230" y="1820" width="70" height="35" as="geometry" />
        </mxCell>
        <mxCell id="EvVna4faZcCAItMm56S3-548" value="&lt;h1&gt;SCL&lt;/h1&gt;" style="text;html=1;strokeColor=none;fillColor=none;spacing=5;spacingTop=-20;whiteSpace=wrap;overflow=hidden;rounded=0;align=center;" parent="1" vertex="1">
          <mxGeometry x="-230" y="1855" width="70" height="35" as="geometry" />
        </mxCell>
        <mxCell id="EvVna4faZcCAItMm56S3-550" value="&lt;h1&gt;JTAG&lt;/h1&gt;" style="text;html=1;strokeColor=none;fillColor=none;spacing=5;spacingTop=-20;whiteSpace=wrap;overflow=hidden;rounded=0;align=center;" parent="1" vertex="1">
          <mxGeometry x="600" y="1235" width="90" height="35" as="geometry" />
        </mxCell>
        <mxCell id="EvVna4faZcCAItMm56S3-551" value="&lt;h1&gt;UART&lt;/h1&gt;" style="text;html=1;strokeColor=none;fillColor=none;spacing=5;spacingTop=-20;whiteSpace=wrap;overflow=hidden;rounded=0;align=center;" parent="1" vertex="1">
          <mxGeometry x="130" y="1345" width="90" height="35" as="geometry" />
        </mxCell>
        <mxCell id="2Kqc3Tl-5rJN90L1hJIf-1" value="" style="endArrow=none;html=1;rounded=0;" edge="1" parent="1">
          <mxGeometry width="50" height="50" relative="1" as="geometry">
            <mxPoint x="680" y="1190" as="sourcePoint" />
            <mxPoint x="680" y="360" as="targetPoint" />
          </mxGeometry>
        </mxCell>
        <mxCell id="2Kqc3Tl-5rJN90L1hJIf-2" value="" style="endArrow=none;html=1;rounded=0;" edge="1" parent="1">
          <mxGeometry width="50" height="50" relative="1" as="geometry">
            <mxPoint x="590" y="1190" as="sourcePoint" />
            <mxPoint x="680" y="1190" as="targetPoint" />
          </mxGeometry>
        </mxCell>
        <mxCell id="2Kqc3Tl-5rJN90L1hJIf-3" value="" style="endArrow=none;html=1;rounded=0;exitX=1.025;exitY=0.338;exitDx=0;exitDy=0;exitPerimeter=0;" edge="1" parent="1" source="EvVna4faZcCAItMm56S3-32">
          <mxGeometry width="50" height="50" relative="1" as="geometry">
            <mxPoint x="630" y="1140" as="sourcePoint" />
            <mxPoint x="700" y="1130" as="targetPoint" />
          </mxGeometry>
        </mxCell>
        <mxCell id="2Kqc3Tl-5rJN90L1hJIf-4" value="" style="endArrow=none;html=1;rounded=0;" edge="1" parent="1">
          <mxGeometry width="50" height="50" relative="1" as="geometry">
            <mxPoint x="700" y="1800" as="sourcePoint" />
            <mxPoint x="700" y="1130" as="targetPoint" />
          </mxGeometry>
        </mxCell>
        <mxCell id="2Kqc3Tl-5rJN90L1hJIf-27" value="&lt;b&gt;SUMO&lt;br&gt;&lt;/b&gt;" style="text;whiteSpace=wrap;html=1;fontSize=25;align=center;" vertex="1" parent="1">
          <mxGeometry x="40" y="597.5" width="120" height="40" as="geometry" />
        </mxCell>
        <mxCell id="2Kqc3Tl-5rJN90L1hJIf-28" value="" style="endArrow=none;html=1;rounded=0;entryX=0;entryY=0.5;entryDx=0;entryDy=0;strokeWidth=4;" edge="1" parent="1" target="EvVna4faZcCAItMm56S3-534">
          <mxGeometry width="50" height="50" relative="1" as="geometry">
            <mxPoint x="-110" y="780" as="sourcePoint" />
            <mxPoint x="-120" y="750" as="targetPoint" />
            <Array as="points">
              <mxPoint x="-110" y="480" />
            </Array>
          </mxGeometry>
        </mxCell>
      </root>
    </mxGraphModel>
  </diagram>
</mxfile>
